<svg width="20.000000" height="20.000000" viewBox="0 0 20 20" fill="none" xmlns="http://www.w3.org/2000/svg" xmlns:xlink="http://www.w3.org/1999/xlink">
	<desc>
			Created with Pixso.
	</desc>
	<defs/>
	<path id="Vector" d="M15.83 13.95C15.49 13.95 15.2 13.67 15.2 13.33L15.2 5.41C15.2 4.84 14.74 4.37 14.16 4.37L9.58 4.37C9.24 4.37 8.95 4.09 8.95 3.75C8.95 3.4 9.24 3.12 9.58 3.12L14.16 3.12C15.43 3.12 16.45 4.14 16.45 5.41L16.45 13.33C16.45 13.67 16.17 13.95 15.83 13.95Z" fill="#74777C" fill-opacity="1.000000" fill-rule="nonzero"/>
	<path id="Vector" d="M11.66 6.45C11.52 6.45 11.38 6.4 11.26 6.31L8.76 4.23C8.62 4.11 8.54 3.94 8.54 3.75C8.54 3.55 8.62 3.39 8.76 3.26L11.26 1.18C11.53 0.95 11.92 1 12.15 1.26C12.37 1.53 12.33 1.92 12.06 2.14L10.14 3.75L12.06 5.34C12.33 5.57 12.36 5.96 12.15 6.23C12.02 6.38 11.84 6.45 11.66 6.45Z" fill="#74777C" fill-opacity="1.000000" fill-rule="nonzero"/>
	<path id="Vector" d="M15.83 18.95C14.1 18.95 12.7 17.55 12.7 15.83C12.7 14.1 14.1 12.7 15.83 12.7C17.55 12.7 18.95 14.1 18.95 15.83C18.95 17.55 17.55 18.95 15.83 18.95ZM15.83 13.95C14.79 13.95 13.95 14.79 13.95 15.83C13.95 16.86 14.79 17.7 15.83 17.7C16.86 17.7 17.7 16.86 17.7 15.83C17.7 14.79 16.86 13.95 15.83 13.95Z" fill="#74777C" fill-opacity="1.000000" fill-rule="nonzero"/>
	<path id="Vector" d="M10.41 16.87L5.83 16.87C4.56 16.87 3.54 15.85 3.54 14.58L3.54 6.66C3.54 6.32 3.82 6.04 4.16 6.04C4.5 6.04 4.79 6.32 4.79 6.66L4.79 14.58C4.79 15.15 5.25 15.62 5.83 15.62L10.41 15.62C10.75 15.62 11.04 15.9 11.04 16.25C11.04 16.59 10.75 16.87 10.41 16.87Z" fill="#74777C" fill-opacity="1.000000" fill-rule="nonzero"/>
	<path id="Vector" d="M8.33 18.95C8.15 18.95 7.97 18.88 7.84 18.73C7.62 18.46 7.66 18.07 7.93 17.84L9.85 16.25L7.93 14.64C7.66 14.42 7.63 14.03 7.84 13.76C8.07 13.5 8.46 13.46 8.73 13.68L11.23 15.76C11.37 15.88 11.45 16.05 11.45 16.25C11.45 16.44 11.37 16.6 11.23 16.73L8.73 18.81C8.61 18.9 8.47 18.95 8.33 18.95Z" fill="#74777C" fill-opacity="1.000000" fill-rule="nonzero"/>
	<path id="Vector" d="M4.16 7.29C2.44 7.29 1.04 5.89 1.04 4.16C1.04 2.44 2.44 1.04 4.16 1.04C5.89 1.04 7.29 2.44 7.29 4.16C7.29 5.89 5.89 7.29 4.16 7.29ZM4.16 2.29C3.13 2.29 2.29 3.13 2.29 4.16C2.29 5.2 3.13 6.04 4.16 6.04C5.2 6.04 6.04 5.2 6.04 4.16C6.04 3.13 5.2 2.29 4.16 2.29Z" fill="#74777C" fill-opacity="1.000000" fill-rule="nonzero"/>
	<g opacity="0.000000"/>
</svg>
