<svg width="20.000000" height="20.000000" viewBox="0 0 20 20" fill="none" xmlns="http://www.w3.org/2000/svg" xmlns:xlink="http://www.w3.org/1999/xlink">
	<desc>
			Created with Pixso.
	</desc>
	<defs/>
	<path id="Vector" d="M5 18.95C4.75 18.95 4.48 18.93 4.21 18.88C4.07 18.85 3.95 18.81 3.82 18.78C3.68 18.74 3.54 18.69 3.42 18.64C3.39 18.63 3.36 18.61 3.34 18.6C3.04 18.45 2.79 18.3 2.57 18.14C2.55 18.13 2.54 18.11 2.53 18.1C2.4 18 2.29 17.9 2.18 17.79C2.06 17.66 1.98 17.56 1.89 17.46C1.7 17.21 1.54 16.96 1.39 16.67C1.38 16.65 1.37 16.61 1.36 16.58C1.31 16.46 1.27 16.35 1.24 16.22C1.19 16.04 1.15 15.93 1.13 15.8C1.07 15.51 1.04 15.25 1.04 15L1.04 3.75C1.04 2.16 2.16 1.05 3.75 1.05L6.25 1.05C7.84 1.05 8.96 2.16 8.96 3.75L8.96 15C8.96 16.03 8.56 17.01 7.84 17.75C7.7 17.89 7.6 17.98 7.51 18.05C7.25 18.29 6.9 18.5 6.54 18.65C6.45 18.68 6.35 18.72 6.25 18.76C5.84 18.89 5.41 18.95 5 18.95ZM3.95 17.5C4.03 17.53 4.11 17.55 4.2 17.58C4.29 17.6 4.38 17.63 4.47 17.65C4.93 17.74 5.42 17.71 5.81 17.58C5.87 17.55 5.95 17.53 6.03 17.5C6.29 17.39 6.51 17.25 6.7 17.1C6.79 17.03 6.84 16.97 6.9 16.92C7.43 16.38 7.7 15.71 7.7 15L7.7 3.75C7.7 2.85 7.14 2.3 6.25 2.3L3.75 2.3C2.84 2.3 2.29 2.85 2.29 3.75L2.29 15C2.29 15.17 2.3 15.35 2.34 15.55C2.36 15.62 2.39 15.71 2.41 15.81C2.45 15.9 2.47 15.98 2.5 16.06C2.52 16.09 2.53 16.11 2.54 16.13C2.54 16.15 2.55 16.17 2.56 16.19C2.66 16.37 2.76 16.53 2.87 16.67C2.93 16.74 3 16.82 3.08 16.9C3.17 17 3.25 17.06 3.33 17.13C3.34 17.14 3.35 17.15 3.36 17.15C3.5 17.25 3.64 17.35 3.82 17.44C3.84 17.45 3.85 17.45 3.87 17.45C3.89 17.46 3.91 17.48 3.95 17.5Z" fill="#0F0E16" fill-opacity="1.000000" fill-rule="nonzero"/>
	<path id="Vector" d="M16.25 18.95L5 18.95C4.65 18.95 4.37 18.67 4.37 18.33C4.37 17.99 4.65 17.7 5 17.7C5.29 17.7 5.57 17.66 5.81 17.58C5.87 17.55 5.95 17.53 6.03 17.5C6.29 17.39 6.51 17.25 6.7 17.1C6.79 17.03 6.84 16.97 6.9 16.92L12.6 11.23C12.72 11.11 12.88 11.05 13.04 11.05L16.25 11.05C17.84 11.05 18.95 12.16 18.95 13.75L18.95 16.25C18.95 17.84 17.84 18.95 16.25 18.95ZM7.88 17.7L16.25 17.7C17.15 17.7 17.7 17.15 17.7 16.25L17.7 13.75C17.7 12.85 17.15 12.29 16.25 12.29L13.3 12.29L7.88 17.7Z" fill="#0F0E16" fill-opacity="1.000000" fill-rule="nonzero"/>
	<path id="Vector" d="M4 18.8C3.95 18.8 3.89 18.79 3.83 18.78C3.21 18.6 2.65 18.25 2.2 17.79C1.75 17.35 1.4 16.79 1.22 16.17C1.12 15.84 1.3 15.5 1.64 15.4C1.97 15.3 2.31 15.48 2.42 15.8C2.69 16.65 3.35 17.32 4.2 17.59C4.53 17.69 4.71 18.04 4.61 18.37C4.52 18.63 4.27 18.8 4 18.8Z" fill="#0F0E16" fill-opacity="1.000000" fill-rule="nonzero"/>
	<path id="Vector" d="M7.38 17.95C7.22 17.95 7.06 17.89 6.94 17.76C6.69 17.52 6.69 17.13 6.93 16.88C7.43 16.37 7.7 15.7 7.7 14.99L7.7 6.94C7.7 6.77 7.77 6.61 7.89 6.5L10.14 4.24C11.24 3.14 12.89 3.14 13.98 4.24L15.75 6C16.87 7.13 16.87 8.71 15.75 9.84L7.82 17.75C7.69 17.89 7.54 17.95 7.38 17.95ZM8.95 7.2L8.95 14.86L14.86 8.96C15.5 8.33 15.5 7.54 14.86 6.89L13.09 5.13C12.47 4.5 11.65 4.5 11.03 5.13L8.95 7.2Z" fill="#0F0E16" fill-opacity="1.000000" fill-rule="nonzero"/>
	<path id="Vector" d="M5 16.45C4.2 16.45 3.54 15.8 3.54 15C3.54 14.2 4.2 13.54 5 13.54C5.8 13.54 6.45 14.2 6.45 15C6.45 15.8 5.8 16.45 5 16.45ZM5 14.79C4.88 14.79 4.79 14.88 4.79 15C4.79 15.23 5.2 15.23 5.2 15C5.2 14.88 5.11 14.79 5 14.79Z" fill="#0F0E16" fill-opacity="1.000000" fill-rule="nonzero"/>
	<g opacity="0.000000">
		<path id="Vector" d="M0 0L20 0L20 20L0 20L0 0Z" fill="#0F0E16" fill-opacity="1.000000" fill-rule="evenodd"/>
	</g>
</svg>
