<svg width="20.000000" height="20.000000" viewBox="0 0 20 20" fill="none" xmlns="http://www.w3.org/2000/svg" xmlns:xlink="http://www.w3.org/1999/xlink">
	<desc>
			Created with Pixso.
	</desc>
	<defs/>
	<path id="Vector" d="M13.17 16.81C12.95 16.81 12.73 16.8 12.49 16.78C12.05 16.75 11.56 16.66 11.05 16.54L9.65 16.2C5.81 15.29 4.55 13.26 5.45 9.43L6.27 5.94C6.45 5.14 6.67 4.5 6.94 3.97C8.37 1.01 11.11 1.28 13.06 1.74L14.45 2.06C16.4 2.52 17.64 3.25 18.33 4.35C19.01 5.46 19.12 6.89 18.66 8.84L17.84 12.32C17.13 15.37 15.64 16.81 13.17 16.81ZM10.93 2.7C9.54 2.7 8.65 3.28 8.06 4.51C7.84 4.96 7.65 5.52 7.49 6.22L6.67 9.71C5.93 12.86 6.79 14.24 9.94 14.99L11.34 15.32C11.79 15.43 12.21 15.5 12.59 15.53C14.86 15.75 15.99 14.76 16.62 12.04L17.44 8.55C17.81 6.94 17.76 5.82 17.26 5.01C16.76 4.2 15.78 3.65 14.16 3.28L12.77 2.95C12.08 2.79 11.46 2.7 10.93 2.7Z" fill="#74777C" fill-opacity="1.000000" fill-rule="nonzero"/>
	<path id="Vector" d="M6.94 18.54C4.79 18.54 3.43 17.25 2.55 14.55L1.49 11.25C0.3 7.59 1.36 5.52 5.01 4.34L6.33 3.91C6.76 3.78 7.09 3.69 7.38 3.64C7.62 3.59 7.85 3.68 8 3.87C8.14 4.06 8.16 4.31 8.06 4.53C7.84 4.97 7.65 5.53 7.5 6.23L6.68 9.72C5.94 12.87 6.79 14.25 9.95 15L11.34 15.33C11.79 15.44 12.22 15.5 12.6 15.54C12.87 15.56 13.09 15.75 13.16 16C13.23 16.26 13.13 16.53 12.91 16.68C12.36 17.05 11.67 17.37 10.79 17.65L9.48 18.09C8.52 18.39 7.69 18.54 6.94 18.54ZM6.48 5.18L5.4 5.53C2.43 6.49 1.72 7.89 2.68 10.87L3.75 14.16C4.71 17.14 6.11 17.85 9.09 16.9L10.4 16.46C10.45 16.45 10.5 16.43 10.54 16.41L9.66 16.2C5.82 15.3 4.56 13.26 5.46 9.43L6.28 5.94C6.34 5.67 6.4 5.41 6.48 5.18Z" fill="#74777C" fill-opacity="1.000000" fill-rule="nonzero"/>
	<path id="Vector" d="M14.57 8.75C14.52 8.75 14.47 8.75 14.41 8.74L10.37 7.71C10.04 7.63 9.84 7.29 9.92 6.95C10 6.62 10.35 6.42 10.68 6.5L14.72 7.53C15.05 7.61 15.25 7.95 15.17 8.29C15.1 8.56 14.85 8.75 14.57 8.75Z" fill="#74777C" fill-opacity="1.000000" fill-rule="nonzero"/>
	<path id="Vector" d="M12.13 11.57C12.08 11.57 12.03 11.56 11.97 11.55L9.54 10.94C9.21 10.85 9.01 10.51 9.09 10.18C9.18 9.85 9.52 9.64 9.85 9.73L12.28 10.35C12.61 10.43 12.81 10.77 12.73 11.1C12.66 11.39 12.41 11.57 12.13 11.57Z" fill="#74777C" fill-opacity="1.000000" fill-rule="nonzero"/>
	<g opacity="0.000000"/>
</svg>
